<?xml version="1.0" encoding="utf-8" standalone="no"?>
<!DOCTYPE svg PUBLIC "-//W3C//DTD SVG 1.1//EN"
  "http://www.w3.org/Graphics/SVG/1.1/DTD/svg11.dtd">
<!-- Created with matplotlib (http://matplotlib.org/) -->
<svg height="216pt" version="1.1" viewBox="0 0 720 216" width="720pt" xmlns="http://www.w3.org/2000/svg" xmlns:xlink="http://www.w3.org/1999/xlink">
 <defs>
  <style type="text/css">
*{stroke-linecap:butt;stroke-linejoin:round;stroke-miterlimit:100000;}
  </style>
 </defs>
 <g id="figure_1">
  <g id="patch_1">
   <path d="M 0 216 
L 720 216 
L 720 0 
L 0 0 
z
" style="fill:#ffffff;"/>
  </g>
  <g id="axes_1">
   <g id="patch_2">
    <path d="M 16.5375 170.629312 
L 351.7875 170.629312 
L 351.7875 10.8 
L 16.5375 10.8 
z
" style="fill:#eaeaf2;"/>
   </g>
   <g id="matplotlib.axis_1">
    <g id="xtick_1">
     <g id="line2d_1">
      <path clip-path="url(#p494ef74388)" d="M 16.5375 170.629312 
L 16.5375 10.8 
" style="fill:none;stroke:#ffffff;stroke-linecap:round;"/>
     </g>
     <g id="line2d_2">
      <defs>
       <path d="M 0 0 
L 0 0 
" id="m068201f9f1" style="stroke:#262626;"/>
      </defs>
      <g>
       <use style="fill:#262626;stroke:#262626;" x="16.5375" xlink:href="#m068201f9f1" y="170.6293125"/>
      </g>
     </g>
     <g id="line2d_3">
      <g>
       <use style="fill:#262626;stroke:#262626;" x="16.5375" xlink:href="#m068201f9f1" y="10.8"/>
      </g>
     </g>
     <g id="text_1">
      <!-- −4 -->
      <defs>
       <path d="M 4.9375 29.6875 
L 4.9375 36.8125 
L 53.515625 36.8125 
L 53.515625 29.6875 
z
" id="LiberationSans-2212"/>
       <path d="M 43.015625 15.578125 
L 43.015625 0 
L 34.71875 0 
L 34.71875 15.578125 
L 2.296875 15.578125 
L 2.296875 22.40625 
L 33.796875 68.796875 
L 43.015625 68.796875 
L 43.015625 22.515625 
L 52.6875 22.515625 
L 52.6875 15.578125 
z
M 34.71875 58.890625 
Q 34.625 58.640625 34.234375 57.9375 
Q 33.84375 57.234375 33.34375 56.34375 
Q 32.859375 55.46875 32.34375 54.5625 
Q 31.84375 53.65625 31.453125 53.078125 
L 13.8125 27.09375 
Q 13.578125 26.703125 13.109375 26.0625 
Q 12.640625 25.4375 12.15625 24.78125 
Q 11.671875 24.125 11.171875 23.484375 
Q 10.6875 22.859375 10.40625 22.515625 
L 34.71875 22.515625 
z
" id="LiberationSans-34"/>
      </defs>
      <g style="fill:#262626;" transform="translate(10.83671875 184.8761875)scale(0.1 -0.1)">
       <use xlink:href="#LiberationSans-2212"/>
       <use x="58.3984375" xlink:href="#LiberationSans-34"/>
      </g>
     </g>
    </g>
    <g id="xtick_2">
     <g id="line2d_4">
      <path clip-path="url(#p494ef74388)" d="M 53.7875 170.629312 
L 53.7875 10.8 
" style="fill:none;stroke:#ffffff;stroke-linecap:round;"/>
     </g>
     <g id="line2d_5">
      <g>
       <use style="fill:#262626;stroke:#262626;" x="53.7875" xlink:href="#m068201f9f1" y="170.6293125"/>
      </g>
     </g>
     <g id="line2d_6">
      <g>
       <use style="fill:#262626;stroke:#262626;" x="53.7875" xlink:href="#m068201f9f1" y="10.8"/>
      </g>
     </g>
     <g id="text_2">
      <!-- −3 -->
      <defs>
       <path d="M 51.21875 19 
Q 51.21875 14.265625 49.671875 10.546875 
Q 48.140625 6.84375 45.1875 4.265625 
Q 42.234375 1.703125 37.859375 0.359375 
Q 33.5 -0.984375 27.875 -0.984375 
Q 21.484375 -0.984375 17.109375 0.609375 
Q 12.75 2.203125 9.90625 4.8125 
Q 7.078125 7.421875 5.65625 10.765625 
Q 4.25 14.109375 3.8125 17.671875 
L 12.890625 18.5 
Q 13.28125 15.765625 14.328125 13.515625 
Q 15.375 11.28125 17.1875 9.671875 
Q 19 8.0625 21.625 7.171875 
Q 24.265625 6.296875 27.875 6.296875 
Q 34.515625 6.296875 38.296875 9.5625 
Q 42.09375 12.84375 42.09375 19.28125 
Q 42.09375 23.09375 40.40625 25.40625 
Q 38.71875 27.734375 36.203125 29.03125 
Q 33.6875 30.328125 30.734375 30.765625 
Q 27.78125 31.203125 25.296875 31.203125 
L 20.3125 31.203125 
L 20.3125 38.8125 
L 25.09375 38.8125 
Q 27.59375 38.8125 30.265625 39.328125 
Q 32.953125 39.84375 35.171875 41.1875 
Q 37.40625 42.53125 38.84375 44.828125 
Q 40.28125 47.125 40.28125 50.6875 
Q 40.28125 56.203125 37.03125 59.390625 
Q 33.796875 62.59375 27.390625 62.59375 
Q 21.578125 62.59375 17.984375 59.609375 
Q 14.40625 56.640625 13.8125 51.21875 
L 4.984375 51.90625 
Q 5.515625 56.453125 7.46875 59.8125 
Q 9.421875 63.1875 12.421875 65.40625 
Q 15.4375 67.625 19.28125 68.71875 
Q 23.140625 69.828125 27.484375 69.828125 
Q 33.25 69.828125 37.390625 68.375 
Q 41.546875 66.9375 44.1875 64.46875 
Q 46.828125 62.015625 48.0625 58.6875 
Q 49.3125 55.375 49.3125 51.609375 
Q 49.3125 48.578125 48.484375 45.9375 
Q 47.65625 43.3125 45.890625 41.203125 
Q 44.140625 39.109375 41.421875 37.59375 
Q 38.71875 36.078125 34.90625 35.296875 
L 34.90625 35.109375 
Q 39.0625 34.671875 42.140625 33.21875 
Q 45.21875 31.78125 47.21875 29.625 
Q 49.21875 27.484375 50.21875 24.75 
Q 51.21875 22.015625 51.21875 19 
" id="LiberationSans-33"/>
      </defs>
      <g style="fill:#262626;" transform="translate(48.08671875 184.8761875)scale(0.1 -0.1)">
       <use xlink:href="#LiberationSans-2212"/>
       <use x="58.3984375" xlink:href="#LiberationSans-33"/>
      </g>
     </g>
    </g>
    <g id="xtick_3">
     <g id="line2d_7">
      <path clip-path="url(#p494ef74388)" d="M 91.0375 170.629312 
L 91.0375 10.8 
" style="fill:none;stroke:#ffffff;stroke-linecap:round;"/>
     </g>
     <g id="line2d_8">
      <g>
       <use style="fill:#262626;stroke:#262626;" x="91.0375" xlink:href="#m068201f9f1" y="170.6293125"/>
      </g>
     </g>
     <g id="line2d_9">
      <g>
       <use style="fill:#262626;stroke:#262626;" x="91.0375" xlink:href="#m068201f9f1" y="10.8"/>
      </g>
     </g>
     <g id="text_3">
      <!-- −2 -->
      <defs>
       <path d="M 5.03125 0 
L 5.03125 6.203125 
Q 7.515625 11.921875 11.109375 16.28125 
Q 14.703125 20.65625 18.65625 24.1875 
Q 22.609375 27.734375 26.484375 30.765625 
Q 30.375 33.796875 33.5 36.8125 
Q 36.625 39.84375 38.546875 43.15625 
Q 40.484375 46.484375 40.484375 50.6875 
Q 40.484375 53.609375 39.59375 55.828125 
Q 38.71875 58.0625 37.0625 59.5625 
Q 35.40625 61.078125 33.078125 61.828125 
Q 30.765625 62.59375 27.9375 62.59375 
Q 25.296875 62.59375 22.96875 61.859375 
Q 20.65625 61.140625 18.84375 59.671875 
Q 17.046875 58.203125 15.890625 56.03125 
Q 14.75 53.859375 14.40625 50.984375 
L 5.421875 51.8125 
Q 5.859375 55.515625 7.46875 58.78125 
Q 9.078125 62.0625 11.90625 64.53125 
Q 14.75 67 18.71875 68.40625 
Q 22.703125 69.828125 27.9375 69.828125 
Q 33.0625 69.828125 37.0625 68.609375 
Q 41.0625 67.390625 43.8125 64.984375 
Q 46.578125 62.59375 48.046875 59.078125 
Q 49.515625 55.5625 49.515625 50.984375 
Q 49.515625 47.515625 48.265625 44.390625 
Q 47.015625 41.265625 44.9375 38.421875 
Q 42.875 35.59375 40.140625 32.953125 
Q 37.40625 30.328125 34.421875 27.8125 
Q 31.453125 25.296875 28.421875 22.828125 
Q 25.390625 20.359375 22.71875 17.859375 
Q 20.0625 15.375 17.96875 12.8125 
Q 15.875 10.25 14.703125 7.46875 
L 50.59375 7.46875 
L 50.59375 0 
z
" id="LiberationSans-32"/>
      </defs>
      <g style="fill:#262626;" transform="translate(85.33671875 184.8761875)scale(0.1 -0.1)">
       <use xlink:href="#LiberationSans-2212"/>
       <use x="58.3984375" xlink:href="#LiberationSans-32"/>
      </g>
     </g>
    </g>
    <g id="xtick_4">
     <g id="line2d_10">
      <path clip-path="url(#p494ef74388)" d="M 128.2875 170.629312 
L 128.2875 10.8 
" style="fill:none;stroke:#ffffff;stroke-linecap:round;"/>
     </g>
     <g id="line2d_11">
      <g>
       <use style="fill:#262626;stroke:#262626;" x="128.2875" xlink:href="#m068201f9f1" y="170.6293125"/>
      </g>
     </g>
     <g id="line2d_12">
      <g>
       <use style="fill:#262626;stroke:#262626;" x="128.2875" xlink:href="#m068201f9f1" y="10.8"/>
      </g>
     </g>
     <g id="text_4">
      <!-- −1 -->
      <defs>
       <path d="M 7.625 0 
L 7.625 7.46875 
L 25.140625 7.46875 
L 25.140625 60.40625 
L 9.625 49.3125 
L 9.625 57.625 
L 25.875 68.796875 
L 33.984375 68.796875 
L 33.984375 7.46875 
L 50.734375 7.46875 
L 50.734375 0 
z
" id="LiberationSans-31"/>
      </defs>
      <g style="fill:#262626;" transform="translate(122.58671875 184.8761875)scale(0.1 -0.1)">
       <use xlink:href="#LiberationSans-2212"/>
       <use x="58.3984375" xlink:href="#LiberationSans-31"/>
      </g>
     </g>
    </g>
    <g id="xtick_5">
     <g id="line2d_13">
      <path clip-path="url(#p494ef74388)" d="M 165.5375 170.629312 
L 165.5375 10.8 
" style="fill:none;stroke:#ffffff;stroke-linecap:round;"/>
     </g>
     <g id="line2d_14">
      <g>
       <use style="fill:#262626;stroke:#262626;" x="165.5375" xlink:href="#m068201f9f1" y="170.6293125"/>
      </g>
     </g>
     <g id="line2d_15">
      <g>
       <use style="fill:#262626;stroke:#262626;" x="165.5375" xlink:href="#m068201f9f1" y="10.8"/>
      </g>
     </g>
     <g id="text_5">
      <!-- 0 -->
      <defs>
       <path d="M 51.703125 34.421875 
Q 51.703125 24.515625 49.828125 17.75 
Q 47.953125 10.984375 44.703125 6.8125 
Q 41.453125 2.640625 37.0625 0.828125 
Q 32.671875 -0.984375 27.6875 -0.984375 
Q 22.65625 -0.984375 18.3125 0.828125 
Q 13.96875 2.640625 10.765625 6.78125 
Q 7.5625 10.9375 5.734375 17.703125 
Q 3.90625 24.46875 3.90625 34.421875 
Q 3.90625 44.828125 5.734375 51.640625 
Q 7.5625 58.453125 10.78125 62.5 
Q 14.015625 66.546875 18.40625 68.1875 
Q 22.796875 69.828125 27.984375 69.828125 
Q 32.90625 69.828125 37.21875 68.1875 
Q 41.546875 66.546875 44.765625 62.5 
Q 48 58.453125 49.84375 51.640625 
Q 51.703125 44.828125 51.703125 34.421875 
M 42.78125 34.421875 
Q 42.78125 42.625 41.796875 48.0625 
Q 40.828125 53.515625 38.921875 56.765625 
Q 37.015625 60.015625 34.25 61.359375 
Q 31.5 62.703125 27.984375 62.703125 
Q 24.265625 62.703125 21.4375 61.328125 
Q 18.609375 59.96875 16.671875 56.71875 
Q 14.75 53.46875 13.765625 48.015625 
Q 12.796875 42.578125 12.796875 34.421875 
Q 12.796875 26.515625 13.796875 21.09375 
Q 14.796875 15.671875 16.71875 12.375 
Q 18.65625 9.078125 21.4375 7.640625 
Q 24.21875 6.203125 27.78125 6.203125 
Q 31.25 6.203125 34.03125 7.640625 
Q 36.8125 9.078125 38.734375 12.375 
Q 40.671875 15.671875 41.71875 21.09375 
Q 42.78125 26.515625 42.78125 34.421875 
" id="LiberationSans-30"/>
      </defs>
      <g style="fill:#262626;" transform="translate(162.75703125 184.8761875)scale(0.1 -0.1)">
       <use xlink:href="#LiberationSans-30"/>
      </g>
     </g>
    </g>
    <g id="xtick_6">
     <g id="line2d_16">
      <path clip-path="url(#p494ef74388)" d="M 202.7875 170.629312 
L 202.7875 10.8 
" style="fill:none;stroke:#ffffff;stroke-linecap:round;"/>
     </g>
     <g id="line2d_17">
      <g>
       <use style="fill:#262626;stroke:#262626;" x="202.7875" xlink:href="#m068201f9f1" y="170.6293125"/>
      </g>
     </g>
     <g id="line2d_18">
      <g>
       <use style="fill:#262626;stroke:#262626;" x="202.7875" xlink:href="#m068201f9f1" y="10.8"/>
      </g>
     </g>
     <g id="text_6">
      <!-- 1 -->
      <g style="fill:#262626;" transform="translate(200.00703125 184.8761875)scale(0.1 -0.1)">
       <use xlink:href="#LiberationSans-31"/>
      </g>
     </g>
    </g>
    <g id="xtick_7">
     <g id="line2d_19">
      <path clip-path="url(#p494ef74388)" d="M 240.0375 170.629312 
L 240.0375 10.8 
" style="fill:none;stroke:#ffffff;stroke-linecap:round;"/>
     </g>
     <g id="line2d_20">
      <g>
       <use style="fill:#262626;stroke:#262626;" x="240.0375" xlink:href="#m068201f9f1" y="170.6293125"/>
      </g>
     </g>
     <g id="line2d_21">
      <g>
       <use style="fill:#262626;stroke:#262626;" x="240.0375" xlink:href="#m068201f9f1" y="10.8"/>
      </g>
     </g>
     <g id="text_7">
      <!-- 2 -->
      <g style="fill:#262626;" transform="translate(237.25703125 184.8761875)scale(0.1 -0.1)">
       <use xlink:href="#LiberationSans-32"/>
      </g>
     </g>
    </g>
    <g id="xtick_8">
     <g id="line2d_22">
      <path clip-path="url(#p494ef74388)" d="M 277.2875 170.629312 
L 277.2875 10.8 
" style="fill:none;stroke:#ffffff;stroke-linecap:round;"/>
     </g>
     <g id="line2d_23">
      <g>
       <use style="fill:#262626;stroke:#262626;" x="277.2875" xlink:href="#m068201f9f1" y="170.6293125"/>
      </g>
     </g>
     <g id="line2d_24">
      <g>
       <use style="fill:#262626;stroke:#262626;" x="277.2875" xlink:href="#m068201f9f1" y="10.8"/>
      </g>
     </g>
     <g id="text_8">
      <!-- 3 -->
      <g style="fill:#262626;" transform="translate(274.50703125 184.8761875)scale(0.1 -0.1)">
       <use xlink:href="#LiberationSans-33"/>
      </g>
     </g>
    </g>
    <g id="xtick_9">
     <g id="line2d_25">
      <path clip-path="url(#p494ef74388)" d="M 314.5375 170.629312 
L 314.5375 10.8 
" style="fill:none;stroke:#ffffff;stroke-linecap:round;"/>
     </g>
     <g id="line2d_26">
      <g>
       <use style="fill:#262626;stroke:#262626;" x="314.5375" xlink:href="#m068201f9f1" y="170.6293125"/>
      </g>
     </g>
     <g id="line2d_27">
      <g>
       <use style="fill:#262626;stroke:#262626;" x="314.5375" xlink:href="#m068201f9f1" y="10.8"/>
      </g>
     </g>
     <g id="text_9">
      <!-- 4 -->
      <g style="fill:#262626;" transform="translate(311.75703125 184.8761875)scale(0.1 -0.1)">
       <use xlink:href="#LiberationSans-34"/>
      </g>
     </g>
    </g>
    <g id="xtick_10">
     <g id="line2d_28">
      <path clip-path="url(#p494ef74388)" d="M 351.7875 170.629312 
L 351.7875 10.8 
" style="fill:none;stroke:#ffffff;stroke-linecap:round;"/>
     </g>
     <g id="line2d_29">
      <g>
       <use style="fill:#262626;stroke:#262626;" x="351.7875" xlink:href="#m068201f9f1" y="170.6293125"/>
      </g>
     </g>
     <g id="line2d_30">
      <g>
       <use style="fill:#262626;stroke:#262626;" x="351.7875" xlink:href="#m068201f9f1" y="10.8"/>
      </g>
     </g>
     <g id="text_10">
      <!-- 5 -->
      <defs>
       <path d="M 51.421875 22.40625 
Q 51.421875 17.234375 49.859375 12.9375 
Q 48.296875 8.640625 45.21875 5.53125 
Q 42.140625 2.4375 37.578125 0.71875 
Q 33.015625 -0.984375 27 -0.984375 
Q 21.578125 -0.984375 17.546875 0.28125 
Q 13.53125 1.5625 10.734375 3.78125 
Q 7.953125 6 6.3125 8.984375 
Q 4.6875 11.96875 4 15.375 
L 12.890625 16.40625 
Q 13.421875 14.453125 14.390625 12.625 
Q 15.375 10.796875 17.0625 9.34375 
Q 18.75 7.90625 21.21875 7.046875 
Q 23.6875 6.203125 27.203125 6.203125 
Q 30.609375 6.203125 33.390625 7.25 
Q 36.1875 8.296875 38.15625 10.34375 
Q 40.140625 12.40625 41.203125 15.375 
Q 42.28125 18.359375 42.28125 22.21875 
Q 42.28125 25.390625 41.25 28.046875 
Q 40.234375 30.71875 38.328125 32.640625 
Q 36.421875 34.578125 33.65625 35.640625 
Q 30.90625 36.71875 27.390625 36.71875 
Q 25.203125 36.71875 23.34375 36.328125 
Q 21.484375 35.9375 19.890625 35.25 
Q 18.3125 34.578125 17.015625 33.671875 
Q 15.71875 32.765625 14.59375 31.78125 
L 6 31.78125 
L 8.296875 68.796875 
L 47.40625 68.796875 
L 47.40625 61.328125 
L 16.3125 61.328125 
L 14.984375 39.5 
Q 17.328125 41.3125 20.84375 42.59375 
Q 24.359375 43.890625 29.203125 43.890625 
Q 34.328125 43.890625 38.421875 42.328125 
Q 42.53125 40.765625 45.40625 37.90625 
Q 48.296875 35.0625 49.859375 31.109375 
Q 51.421875 27.15625 51.421875 22.40625 
" id="LiberationSans-35"/>
      </defs>
      <g style="fill:#262626;" transform="translate(349.00703125 184.8761875)scale(0.1 -0.1)">
       <use xlink:href="#LiberationSans-35"/>
      </g>
     </g>
    </g>
    <g id="text_11">
     <!-- $Y$ -->
     <defs>
      <path d="M 8.890625 1.3125 
Q 8.9375 1.5625 9.078125 2.140625 
Q 9.234375 2.734375 9.46875 3.125 
Q 9.71875 3.515625 10.203125 3.515625 
Q 16.3125 3.515625 18.703125 4.203125 
Q 19.1875 4.34375 19.59375 4.875 
Q 20.015625 5.421875 20.265625 6 
Q 20.515625 6.59375 20.703125 7.171875 
L 25.6875 27.296875 
L 12.796875 62.796875 
Q 11.921875 64.109375 9.625 64.453125 
Q 7.328125 64.796875 4.296875 64.796875 
Q 3.328125 64.796875 3.328125 66.109375 
Q 3.609375 67.328125 3.859375 67.8125 
Q 4.109375 68.3125 4.984375 68.3125 
L 30.171875 68.3125 
Q 31.109375 68.3125 31.109375 67 
Q 30.71875 64.796875 29.78125 64.796875 
Q 22.703125 64.796875 22.703125 62.59375 
L 33.984375 31.78125 
L 57.625 59.078125 
Q 57.8125 59.578125 58.296875 60.28125 
Q 58.796875 60.984375 59.03125 61.46875 
Q 59.28125 61.96875 59.28125 62.59375 
Q 59.28125 64.796875 55.171875 64.796875 
Q 54.203125 64.796875 54.203125 66.109375 
Q 54.390625 66.890625 54.515625 67.328125 
Q 54.640625 67.78125 54.953125 68.046875 
Q 55.28125 68.3125 55.90625 68.3125 
L 75.296875 68.3125 
Q 75.734375 68.3125 76.015625 67.875 
Q 76.3125 67.4375 76.3125 67 
Q 76.125 66.265625 76.015625 65.9375 
Q 75.921875 65.625 75.671875 65.203125 
Q 75.4375 64.796875 74.90625 64.796875 
Q 70.90625 64.796875 67.328125 63.0625 
Q 63.765625 61.328125 61.078125 58.203125 
Q 60.984375 58.109375 60.859375 58.03125 
Q 60.75 57.953125 60.59375 57.8125 
L 34.1875 27.296875 
L 29 6.59375 
Q 29 6.34375 28.90625 5.859375 
Q 28.8125 5.375 28.8125 5.078125 
Q 28.8125 4.6875 28.921875 4.421875 
Q 29.046875 4.15625 29.265625 4.078125 
Q 29.5 4 29.984375 3.90625 
Q 31.890625 3.515625 37.203125 3.515625 
Q 38.1875 3.515625 38.1875 2.203125 
Q 37.84375 0.78125 37.640625 0.390625 
Q 37.453125 0 36.53125 0 
L 9.90625 0 
Q 8.890625 0 8.890625 1.3125 
" id="Cmmi10-59"/>
     </defs>
     <g style="fill:#262626;" transform="translate(180.9175 199.92275)scale(0.11 -0.11)">
      <use transform="translate(0.0 0.6875)" xlink:href="#Cmmi10-59"/>
     </g>
    </g>
   </g>
   <g id="line2d_31">
    <path clip-path="url(#p494ef74388)" d="M 35.1625 170.622926 
L 62.904242 170.491176 
L 73.941279 170.227086 
L 81.398736 169.841343 
L 87.364702 169.318297 
L 92.435773 168.648778 
L 96.611949 167.885879 
L 100.489827 166.958091 
L 104.069407 165.871392 
L 107.350688 164.643586 
L 110.333671 163.303959 
L 113.316654 161.721824 
L 116.299637 159.867216 
L 118.984322 157.939853 
L 121.669007 155.744839 
L 124.353691 153.260588 
L 127.038376 150.466714 
L 129.723061 147.344691 
L 132.407745 143.878562 
L 135.09243 140.055693 
L 137.777115 135.867544 
L 140.760098 130.781356 
L 143.743081 125.242968 
L 147.024362 118.644134 
L 150.305643 111.54612 
L 153.885223 103.291636 
L 158.061399 93.102987 
L 163.729067 78.634553 
L 173.57291 53.426283 
L 177.450788 44.142746 
L 180.73207 36.852595 
L 183.416754 31.382465 
L 185.803141 26.960501 
L 188.189527 23.005236 
L 190.277615 19.963263 
L 192.365703 17.34104 
L 194.155493 15.445725 
L 195.945283 13.889247 
L 197.436774 12.858741 
L 198.928266 12.075857 
L 200.419757 11.544339 
L 201.911249 11.266735 
L 203.40274 11.244378 
L 204.894232 11.477375 
L 206.385723 11.964608 
L 207.877215 12.70374 
L 209.368706 13.691234 
L 210.860198 14.922384 
L 212.649987 16.713088 
L 214.439777 18.83404 
L 216.527865 21.70674 
L 218.615953 24.983454 
L 221.00234 29.185362 
L 223.388726 33.828655 
L 226.073411 39.515212 
L 229.354692 47.020468 
L 233.23257 56.485993 
L 238.900238 70.993355 
L 248.147485 94.681956 
L 252.621959 105.488348 
L 256.499837 114.263638 
L 259.781119 121.179281 
L 263.0624 127.581754 
L 266.045383 132.93459 
L 269.028366 137.832812 
L 272.011349 142.276939 
L 274.696034 145.895337 
L 277.380718 149.163737 
L 280.065403 152.096759 
L 282.750088 154.711914 
L 285.434772 157.028871 
L 288.119457 159.068774 
L 290.804142 160.853627 
L 293.787125 162.564798 
L 296.770108 164.018966 
L 300.051389 165.356795 
L 303.33267 166.456374 
L 306.91225 167.424605 
L 310.790128 168.246694 
L 315.264602 168.959503 
L 320.335673 169.532534 
L 326.301639 169.976104 
L 333.1625 170.280612 
L 333.1625 170.280612 
" style="fill:none;stroke:#4c72b0;stroke-linecap:round;stroke-width:1.75;"/>
   </g>
   <g id="line2d_32">
    <path clip-path="url(#p494ef74388)" d="M 35.1625 170.280612 
L 43.216554 169.903279 
L 49.18252 169.416495 
L 54.253591 168.790872 
L 58.728066 168.016151 
L 62.605943 167.126218 
L 66.185523 166.081855 
L 69.466804 164.899779 
L 72.449787 163.607926 
L 75.43277 162.0798 
L 78.415753 160.285639 
L 81.100438 158.418243 
L 83.785123 156.288403 
L 86.469807 153.874337 
L 89.154492 151.15532 
L 91.839177 148.112323 
L 94.523861 144.728717 
L 97.208546 140.991013 
L 99.893231 136.889635 
L 102.876214 131.900253 
L 105.859197 126.457225 
L 108.84218 120.571273 
L 112.123461 113.610835 
L 115.703041 105.488348 
L 119.879217 95.421368 
L 124.950288 82.58362 
L 137.478816 50.596707 
L 141.058396 42.180448 
L 144.041379 35.673195 
L 146.726064 30.306774 
L 149.11245 25.989848 
L 151.498836 22.150754 
L 153.586924 19.218668 
L 155.376714 17.044006 
L 157.166504 15.197358 
L 158.956294 13.691234 
L 160.447785 12.70374 
L 161.939277 11.964608 
L 163.430768 11.477375 
L 164.92226 11.244378 
L 166.413751 11.266735 
L 167.905243 11.544339 
L 169.396734 12.075857 
L 170.888226 12.858741 
L 172.379717 13.889247 
L 173.871209 15.162467 
L 175.660998 17.002141 
L 177.450788 19.170111 
L 179.538876 22.094804 
L 181.626964 25.420027 
L 184.013351 29.672629 
L 186.698036 34.975251 
L 189.681019 41.422976 
L 192.9623 49.065814 
L 197.138476 59.398083 
L 203.999337 77.088585 
L 210.860198 94.589362 
L 215.334672 105.401087 
L 219.21255 114.18225 
L 222.493831 121.103512 
L 225.775113 127.511993 
L 228.758096 132.870478 
L 231.741079 137.774396 
L 234.724062 142.224162 
L 237.408746 145.847508 
L 240.093431 149.120677 
L 242.778116 152.058243 
L 245.4628 154.677682 
L 248.147485 156.998638 
L 250.83217 159.04224 
L 253.516854 160.830483 
L 256.499837 162.545057 
L 259.48282 164.002254 
L 262.764102 165.342998 
L 266.045383 166.445086 
L 269.624962 167.415627 
L 273.50284 168.23977 
L 277.977315 168.954449 
L 283.048386 169.529064 
L 289.014352 169.973932 
L 296.471809 170.298501 
L 306.91225 170.510555 
L 324.511849 170.611635 
L 333.1625 170.622926 
L 333.1625 170.622926 
" style="fill:none;stroke:#55a868;stroke-linecap:round;stroke-width:1.75;"/>
   </g>
   <g id="patch_3">
    <path d="M 16.5375 10.8 
L 351.7875 10.8 
" style="fill:none;"/>
   </g>
   <g id="patch_4">
    <path d="M 351.7875 170.629312 
L 351.7875 10.8 
" style="fill:none;"/>
   </g>
   <g id="patch_5">
    <path d="M 16.5375 170.629312 
L 351.7875 170.629312 
" style="fill:none;"/>
   </g>
   <g id="patch_6">
    <path d="M 16.5375 170.629312 
L 16.5375 10.8 
" style="fill:none;"/>
   </g>
   <g id="legend_1">
    <g id="line2d_33">
     <path d="M 293.0875 23.8 
L 313.0875 23.8 
" style="fill:none;stroke:#4c72b0;stroke-linecap:round;stroke-width:1.75;"/>
    </g>
    <g id="line2d_34"/>
    <g id="text_12">
     <!-- $f(Y_t)$ -->
     <defs>
      <path d="M 31 -24.8125 
Q 25.4375 -20.40625 21.40625 -14.71875 
Q 17.390625 -9.03125 14.8125 -2.578125 
Q 12.25 3.859375 10.984375 10.890625 
Q 9.71875 17.921875 9.71875 25 
Q 9.71875 32.171875 10.984375 39.203125 
Q 12.25 46.234375 14.859375 52.734375 
Q 17.484375 59.234375 21.53125 64.890625 
Q 25.59375 70.5625 31 74.8125 
Q 31 75 31.5 75 
L 32.421875 75 
Q 32.71875 75 32.953125 74.734375 
Q 33.203125 74.46875 33.203125 74.125 
Q 33.203125 73.6875 33.015625 73.484375 
Q 28.125 68.703125 24.875 63.234375 
Q 21.625 57.765625 19.640625 51.578125 
Q 17.671875 45.40625 16.796875 38.78125 
Q 15.921875 32.171875 15.921875 25 
Q 15.921875 -6.78125 32.90625 -23.296875 
Q 33.203125 -23.578125 33.203125 -24.125 
Q 33.203125 -24.359375 32.9375 -24.671875 
Q 32.671875 -25 32.421875 -25 
L 31.5 -25 
Q 31 -25 31 -24.8125 
" id="Cmr10-28"/>
      <path d="M 6.5 -25 
Q 5.609375 -25 5.609375 -24.125 
Q 5.609375 -23.6875 5.8125 -23.484375 
Q 22.90625 -6.78125 22.90625 25 
Q 22.90625 56.78125 6 73.296875 
Q 5.609375 73.53125 5.609375 74.125 
Q 5.609375 74.46875 5.875 74.734375 
Q 6.15625 75 6.5 75 
L 7.421875 75 
Q 7.71875 75 7.90625 74.8125 
Q 15.09375 69.140625 19.875 61.03125 
Q 24.65625 52.9375 26.875 43.75 
Q 29.109375 34.578125 29.109375 25 
Q 29.109375 17.921875 27.90625 11.0625 
Q 26.703125 4.203125 24.09375 -2.453125 
Q 21.484375 -9.125 17.484375 -14.765625 
Q 13.484375 -20.40625 7.90625 -24.8125 
Q 7.71875 -25 7.421875 -25 
z
" id="Cmr10-29"/>
      <path d="M 6.203125 8.109375 
Q 6.203125 9.578125 6.5 10.890625 
L 13.71875 39.59375 
L 3.21875 39.59375 
Q 2.203125 39.59375 2.203125 40.921875 
Q 2.59375 43.109375 3.515625 43.109375 
L 14.59375 43.109375 
L 18.609375 59.421875 
Q 19 60.75 20.171875 61.671875 
Q 21.34375 62.59375 22.796875 62.59375 
Q 24.078125 62.59375 24.921875 61.828125 
Q 25.78125 61.078125 25.78125 59.8125 
Q 25.78125 59.515625 25.75 59.34375 
Q 25.734375 59.1875 25.6875 58.984375 
L 21.6875 43.109375 
L 31.984375 43.109375 
Q 33.015625 43.109375 33.015625 41.796875 
Q 32.953125 41.546875 32.8125 40.953125 
Q 32.671875 40.375 32.421875 39.984375 
Q 32.171875 39.59375 31.6875 39.59375 
L 20.796875 39.59375 
L 13.625 10.6875 
Q 12.890625 7.859375 12.890625 5.8125 
Q 12.890625 1.515625 15.828125 1.515625 
Q 20.21875 1.515625 23.609375 5.640625 
Q 27 9.765625 28.8125 14.703125 
Q 29.203125 15.28125 29.59375 15.28125 
L 30.8125 15.28125 
Q 31.203125 15.28125 31.4375 15.015625 
Q 31.6875 14.75 31.6875 14.40625 
Q 31.6875 14.203125 31.59375 14.109375 
Q 29.390625 8.0625 25.1875 3.46875 
Q 21 -1.125 15.578125 -1.125 
Q 11.625 -1.125 8.90625 1.453125 
Q 6.203125 4.046875 6.203125 8.109375 
" id="Cmmi10-74"/>
      <path d="M 9.71875 -16.5 
Q 11.578125 -17.921875 14.203125 -17.921875 
Q 17.78125 -17.921875 20.015625 -10.015625 
Q 20.953125 -6.203125 25.09375 15.09375 
L 29.6875 39.59375 
L 21.09375 39.59375 
Q 20.125 39.59375 20.125 40.921875 
Q 20.515625 43.109375 21.390625 43.109375 
L 30.328125 43.109375 
L 31.5 49.609375 
Q 32.078125 52.640625 32.5625 54.8125 
Q 33.0625 56.984375 33.625 58.828125 
Q 34.1875 60.6875 35.296875 62.984375 
Q 37.015625 66.265625 39.921875 68.390625 
Q 42.828125 70.515625 46.1875 70.515625 
Q 48.390625 70.515625 50.46875 69.703125 
Q 52.546875 68.890625 53.859375 67.28125 
Q 55.171875 65.671875 55.171875 63.484375 
Q 55.171875 60.9375 53.484375 59.046875 
Q 51.8125 57.171875 49.421875 57.171875 
Q 47.796875 57.171875 46.65625 58.171875 
Q 45.515625 59.1875 45.515625 60.796875 
Q 45.515625 62.984375 47 64.625 
Q 48.484375 66.265625 50.6875 66.5 
Q 48.828125 67.921875 46.09375 67.921875 
Q 44.578125 67.921875 43.234375 66.5 
Q 41.890625 65.09375 41.5 63.484375 
Q 40.875 60.9375 38.71875 49.703125 
L 37.5 43.109375 
L 47.796875 43.109375 
Q 48.78125 43.109375 48.78125 41.796875 
Q 48.734375 41.546875 48.578125 40.9375 
Q 48.4375 40.328125 48.171875 39.953125 
Q 47.90625 39.59375 47.515625 39.59375 
L 36.8125 39.59375 
L 32.171875 15.1875 
Q 31.296875 9.859375 30.140625 4.359375 
Q 29 -1.125 26.921875 -6.90625 
Q 24.859375 -12.703125 21.625 -16.609375 
Q 18.40625 -20.515625 14.015625 -20.515625 
Q 10.640625 -20.515625 7.984375 -18.578125 
Q 5.328125 -16.65625 5.328125 -13.484375 
Q 5.328125 -10.9375 6.953125 -9.046875 
Q 8.59375 -7.171875 11.078125 -7.171875 
Q 12.75 -7.171875 13.859375 -8.171875 
Q 14.984375 -9.1875 14.984375 -10.796875 
Q 14.984375 -12.9375 13.390625 -14.71875 
Q 11.8125 -16.5 9.71875 -16.5 
" id="Cmmi10-66"/>
     </defs>
     <g style="fill:#262626;" transform="translate(321.0875 27.3)scale(0.1 -0.1)">
      <use xlink:href="#Cmmi10-66"/>
      <use transform="translate(48.876953125 0.0)" xlink:href="#Cmr10-28"/>
      <use transform="translate(87.6953125 0.0)" xlink:href="#Cmmi10-59"/>
      <use transform="translate(145.703125 -17.00625)scale(0.7)" xlink:href="#Cmmi10-74"/>
      <use transform="translate(177.339257812 0.0)" xlink:href="#Cmr10-29"/>
     </g>
    </g>
    <g id="line2d_35">
     <path d="M 293.0875 38.8 
L 313.0875 38.8 
" style="fill:none;stroke:#55a868;stroke-linecap:round;stroke-width:1.75;"/>
    </g>
    <g id="line2d_36"/>
    <g id="text_13">
     <!-- $f(Y_c$) -->
     <defs>
      <path d="M 27.09375 25.78125 
Q 27.09375 18.953125 26.0625 12.765625 
Q 25.046875 6.59375 22.84375 0.875 
Q 20.65625 -4.828125 17.234375 -10.203125 
Q 13.8125 -15.578125 9.078125 -20.703125 
L 0.59375 -20.703125 
Q 5.171875 -15.578125 8.515625 -10.203125 
Q 11.859375 -4.828125 14 0.921875 
Q 16.15625 6.6875 17.203125 12.890625 
Q 18.265625 19.09375 18.265625 25.875 
Q 18.265625 32.671875 17.203125 38.859375 
Q 16.15625 45.0625 14 50.796875 
Q 11.859375 56.546875 8.515625 61.9375 
Q 5.171875 67.328125 0.59375 72.46875 
L 9.078125 72.46875 
Q 13.8125 67.328125 17.234375 61.953125 
Q 20.65625 56.59375 22.84375 50.875 
Q 25.046875 45.171875 26.0625 38.96875 
Q 27.09375 32.765625 27.09375 25.984375 
z
" id="LiberationSans-29"/>
      <path d="M 11.71875 11.921875 
Q 11.71875 7.5625 13.9375 4.53125 
Q 16.15625 1.515625 20.3125 1.515625 
Q 26.265625 1.515625 31.75 4.25 
Q 37.25 6.984375 40.71875 11.8125 
Q 41.015625 12.109375 41.5 12.109375 
Q 42 12.109375 42.5 11.546875 
Q 43.015625 10.984375 43.015625 10.5 
Q 43.015625 10.109375 42.828125 9.90625 
Q 39.15625 4.78125 32.953125 1.828125 
Q 26.765625 -1.125 20.125 -1.125 
Q 15.328125 -1.125 11.671875 1.140625 
Q 8.015625 3.421875 6 7.21875 
Q 4 11.03125 4 15.828125 
Q 4 22.5625 7.765625 29.203125 
Q 11.53125 35.84375 17.78125 40.015625 
Q 24.03125 44.1875 30.90625 44.1875 
Q 35.40625 44.1875 38.984375 42.015625 
Q 42.578125 39.84375 42.578125 35.59375 
Q 42.578125 32.859375 40.984375 30.921875 
Q 39.40625 29 36.71875 29 
Q 35.109375 29 34 30 
Q 32.90625 31 32.90625 32.625 
Q 32.90625 34.96875 34.609375 36.625 
Q 36.328125 38.28125 38.625 38.28125 
L 38.8125 38.28125 
Q 37.640625 39.984375 35.421875 40.796875 
Q 33.203125 41.609375 30.8125 41.609375 
Q 24.953125 41.609375 20.546875 36.59375 
Q 16.15625 31.59375 13.9375 24.625 
Q 11.71875 17.671875 11.71875 11.921875 
" id="Cmmi10-63"/>
     </defs>
     <g style="fill:#262626;" transform="translate(321.0875 42.3)scale(0.1 -0.1)">
      <use xlink:href="#Cmmi10-66"/>
      <use transform="translate(48.876953125 0.0)" xlink:href="#Cmr10-28"/>
      <use transform="translate(87.6953125 0.0)" xlink:href="#Cmmi10-59"/>
      <use transform="translate(145.703125 -17.00625)scale(0.7)" xlink:href="#Cmmi10-63"/>
      <use transform="translate(182.329492187 0.0)" xlink:href="#LiberationSans-29"/>
     </g>
    </g>
   </g>
  </g>
  <g id="axes_2">
   <g id="patch_7">
    <path d="M 371.1375 170.629312 
L 706.3875 170.629312 
L 706.3875 10.8 
L 371.1375 10.8 
z
" style="fill:#eaeaf2;"/>
   </g>
   <g id="matplotlib.axis_2">
    <g id="xtick_11">
     <g id="line2d_37">
      <path clip-path="url(#pa581e831eb)" d="M 371.1375 170.629312 
L 371.1375 10.8 
" style="fill:none;stroke:#ffffff;stroke-linecap:round;"/>
     </g>
     <g id="line2d_38">
      <g>
       <use style="fill:#262626;stroke:#262626;" x="371.1375" xlink:href="#m068201f9f1" y="170.6293125"/>
      </g>
     </g>
     <g id="line2d_39">
      <g>
       <use style="fill:#262626;stroke:#262626;" x="371.1375" xlink:href="#m068201f9f1" y="10.8"/>
      </g>
     </g>
     <g id="text_14">
      <!-- −4 -->
      <g style="fill:#262626;" transform="translate(365.43671875 184.8761875)scale(0.1 -0.1)">
       <use xlink:href="#LiberationSans-2212"/>
       <use x="58.3984375" xlink:href="#LiberationSans-34"/>
      </g>
     </g>
    </g>
    <g id="xtick_12">
     <g id="line2d_40">
      <path clip-path="url(#pa581e831eb)" d="M 408.3875 170.629312 
L 408.3875 10.8 
" style="fill:none;stroke:#ffffff;stroke-linecap:round;"/>
     </g>
     <g id="line2d_41">
      <g>
       <use style="fill:#262626;stroke:#262626;" x="408.3875" xlink:href="#m068201f9f1" y="170.6293125"/>
      </g>
     </g>
     <g id="line2d_42">
      <g>
       <use style="fill:#262626;stroke:#262626;" x="408.3875" xlink:href="#m068201f9f1" y="10.8"/>
      </g>
     </g>
     <g id="text_15">
      <!-- −3 -->
      <g style="fill:#262626;" transform="translate(402.68671875 184.8761875)scale(0.1 -0.1)">
       <use xlink:href="#LiberationSans-2212"/>
       <use x="58.3984375" xlink:href="#LiberationSans-33"/>
      </g>
     </g>
    </g>
    <g id="xtick_13">
     <g id="line2d_43">
      <path clip-path="url(#pa581e831eb)" d="M 445.6375 170.629312 
L 445.6375 10.8 
" style="fill:none;stroke:#ffffff;stroke-linecap:round;"/>
     </g>
     <g id="line2d_44">
      <g>
       <use style="fill:#262626;stroke:#262626;" x="445.6375" xlink:href="#m068201f9f1" y="170.6293125"/>
      </g>
     </g>
     <g id="line2d_45">
      <g>
       <use style="fill:#262626;stroke:#262626;" x="445.6375" xlink:href="#m068201f9f1" y="10.8"/>
      </g>
     </g>
     <g id="text_16">
      <!-- −2 -->
      <g style="fill:#262626;" transform="translate(439.93671875 184.8761875)scale(0.1 -0.1)">
       <use xlink:href="#LiberationSans-2212"/>
       <use x="58.3984375" xlink:href="#LiberationSans-32"/>
      </g>
     </g>
    </g>
    <g id="xtick_14">
     <g id="line2d_46">
      <path clip-path="url(#pa581e831eb)" d="M 482.8875 170.629312 
L 482.8875 10.8 
" style="fill:none;stroke:#ffffff;stroke-linecap:round;"/>
     </g>
     <g id="line2d_47">
      <g>
       <use style="fill:#262626;stroke:#262626;" x="482.8875" xlink:href="#m068201f9f1" y="170.6293125"/>
      </g>
     </g>
     <g id="line2d_48">
      <g>
       <use style="fill:#262626;stroke:#262626;" x="482.8875" xlink:href="#m068201f9f1" y="10.8"/>
      </g>
     </g>
     <g id="text_17">
      <!-- −1 -->
      <g style="fill:#262626;" transform="translate(477.18671875 184.8761875)scale(0.1 -0.1)">
       <use xlink:href="#LiberationSans-2212"/>
       <use x="58.3984375" xlink:href="#LiberationSans-31"/>
      </g>
     </g>
    </g>
    <g id="xtick_15">
     <g id="line2d_49">
      <path clip-path="url(#pa581e831eb)" d="M 520.1375 170.629312 
L 520.1375 10.8 
" style="fill:none;stroke:#ffffff;stroke-linecap:round;"/>
     </g>
     <g id="line2d_50">
      <g>
       <use style="fill:#262626;stroke:#262626;" x="520.1375" xlink:href="#m068201f9f1" y="170.6293125"/>
      </g>
     </g>
     <g id="line2d_51">
      <g>
       <use style="fill:#262626;stroke:#262626;" x="520.1375" xlink:href="#m068201f9f1" y="10.8"/>
      </g>
     </g>
     <g id="text_18">
      <!-- 0 -->
      <g style="fill:#262626;" transform="translate(517.35703125 184.8761875)scale(0.1 -0.1)">
       <use xlink:href="#LiberationSans-30"/>
      </g>
     </g>
    </g>
    <g id="xtick_16">
     <g id="line2d_52">
      <path clip-path="url(#pa581e831eb)" d="M 557.3875 170.629312 
L 557.3875 10.8 
" style="fill:none;stroke:#ffffff;stroke-linecap:round;"/>
     </g>
     <g id="line2d_53">
      <g>
       <use style="fill:#262626;stroke:#262626;" x="557.3875" xlink:href="#m068201f9f1" y="170.6293125"/>
      </g>
     </g>
     <g id="line2d_54">
      <g>
       <use style="fill:#262626;stroke:#262626;" x="557.3875" xlink:href="#m068201f9f1" y="10.8"/>
      </g>
     </g>
     <g id="text_19">
      <!-- 1 -->
      <g style="fill:#262626;" transform="translate(554.60703125 184.8761875)scale(0.1 -0.1)">
       <use xlink:href="#LiberationSans-31"/>
      </g>
     </g>
    </g>
    <g id="xtick_17">
     <g id="line2d_55">
      <path clip-path="url(#pa581e831eb)" d="M 594.6375 170.629312 
L 594.6375 10.8 
" style="fill:none;stroke:#ffffff;stroke-linecap:round;"/>
     </g>
     <g id="line2d_56">
      <g>
       <use style="fill:#262626;stroke:#262626;" x="594.6375" xlink:href="#m068201f9f1" y="170.6293125"/>
      </g>
     </g>
     <g id="line2d_57">
      <g>
       <use style="fill:#262626;stroke:#262626;" x="594.6375" xlink:href="#m068201f9f1" y="10.8"/>
      </g>
     </g>
     <g id="text_20">
      <!-- 2 -->
      <g style="fill:#262626;" transform="translate(591.85703125 184.8761875)scale(0.1 -0.1)">
       <use xlink:href="#LiberationSans-32"/>
      </g>
     </g>
    </g>
    <g id="xtick_18">
     <g id="line2d_58">
      <path clip-path="url(#pa581e831eb)" d="M 631.8875 170.629312 
L 631.8875 10.8 
" style="fill:none;stroke:#ffffff;stroke-linecap:round;"/>
     </g>
     <g id="line2d_59">
      <g>
       <use style="fill:#262626;stroke:#262626;" x="631.8875" xlink:href="#m068201f9f1" y="170.6293125"/>
      </g>
     </g>
     <g id="line2d_60">
      <g>
       <use style="fill:#262626;stroke:#262626;" x="631.8875" xlink:href="#m068201f9f1" y="10.8"/>
      </g>
     </g>
     <g id="text_21">
      <!-- 3 -->
      <g style="fill:#262626;" transform="translate(629.10703125 184.8761875)scale(0.1 -0.1)">
       <use xlink:href="#LiberationSans-33"/>
      </g>
     </g>
    </g>
    <g id="xtick_19">
     <g id="line2d_61">
      <path clip-path="url(#pa581e831eb)" d="M 669.1375 170.629312 
L 669.1375 10.8 
" style="fill:none;stroke:#ffffff;stroke-linecap:round;"/>
     </g>
     <g id="line2d_62">
      <g>
       <use style="fill:#262626;stroke:#262626;" x="669.1375" xlink:href="#m068201f9f1" y="170.6293125"/>
      </g>
     </g>
     <g id="line2d_63">
      <g>
       <use style="fill:#262626;stroke:#262626;" x="669.1375" xlink:href="#m068201f9f1" y="10.8"/>
      </g>
     </g>
     <g id="text_22">
      <!-- 4 -->
      <g style="fill:#262626;" transform="translate(666.35703125 184.8761875)scale(0.1 -0.1)">
       <use xlink:href="#LiberationSans-34"/>
      </g>
     </g>
    </g>
    <g id="xtick_20">
     <g id="line2d_64">
      <path clip-path="url(#pa581e831eb)" d="M 706.3875 170.629312 
L 706.3875 10.8 
" style="fill:none;stroke:#ffffff;stroke-linecap:round;"/>
     </g>
     <g id="line2d_65">
      <g>
       <use style="fill:#262626;stroke:#262626;" x="706.3875" xlink:href="#m068201f9f1" y="170.6293125"/>
      </g>
     </g>
     <g id="line2d_66">
      <g>
       <use style="fill:#262626;stroke:#262626;" x="706.3875" xlink:href="#m068201f9f1" y="10.8"/>
      </g>
     </g>
     <g id="text_23">
      <!-- 5 -->
      <g style="fill:#262626;" transform="translate(703.60703125 184.8761875)scale(0.1 -0.1)">
       <use xlink:href="#LiberationSans-35"/>
      </g>
     </g>
    </g>
    <g id="text_24">
     <!-- $\tau = Y_t - Y_c$ -->
     <defs>
      <path d="M 10.203125 23 
Q 9.375 23 8.828125 23.625 
Q 8.296875 24.265625 8.296875 25 
Q 8.296875 25.734375 8.828125 26.359375 
Q 9.375 27 10.203125 27 
L 67.578125 27 
Q 68.359375 27 68.875 26.359375 
Q 69.390625 25.734375 69.390625 25 
Q 69.390625 24.265625 68.875 23.625 
Q 68.359375 23 67.578125 23 
z
" id="Cmsy10-a1"/>
      <path d="M 15.578125 1.515625 
Q 15.578125 2.203125 15.71875 2.59375 
L 26.21875 36.921875 
L 17.1875 36.921875 
Q 13.53125 36.921875 10.34375 34.625 
Q 7.171875 32.328125 5.078125 28.8125 
Q 4.890625 28.421875 4.5 28.421875 
L 3.328125 28.421875 
Q 2.390625 28.421875 2.390625 29.390625 
Q 2.390625 29.59375 2.59375 29.984375 
Q 5.859375 35.546875 9.59375 39.328125 
Q 13.328125 43.109375 18.015625 43.109375 
L 48.6875 43.109375 
Q 49.75 43.109375 50.484375 42.375 
Q 51.21875 41.65625 51.21875 40.578125 
Q 51.21875 39.109375 50.171875 38.015625 
Q 49.125 36.921875 47.609375 36.921875 
L 29.5 36.921875 
L 22.796875 2.390625 
Q 22.40625 0.78125 21.328125 -0.265625 
Q 20.265625 -1.3125 18.609375 -1.3125 
Q 17.328125 -1.3125 16.453125 -0.5 
Q 15.578125 0.296875 15.578125 1.515625 
" id="Cmmi10-bf"/>
      <path d="M 7.515625 13.28125 
Q 6.6875 13.28125 6.140625 13.90625 
Q 5.609375 14.546875 5.609375 15.28125 
Q 5.609375 16.109375 6.140625 16.6875 
Q 6.6875 17.28125 7.515625 17.28125 
L 70.3125 17.28125 
Q 71.046875 17.28125 71.578125 16.6875 
Q 72.125 16.109375 72.125 15.28125 
Q 72.125 14.546875 71.578125 13.90625 
Q 71.046875 13.28125 70.3125 13.28125 
z
M 7.515625 32.71875 
Q 6.6875 32.71875 6.140625 33.296875 
Q 5.609375 33.890625 5.609375 34.71875 
Q 5.609375 35.453125 6.140625 36.078125 
Q 6.6875 36.71875 7.515625 36.71875 
L 70.3125 36.71875 
Q 71.046875 36.71875 71.578125 36.078125 
Q 72.125 35.453125 72.125 34.71875 
Q 72.125 33.890625 71.578125 33.296875 
Q 71.046875 32.71875 70.3125 32.71875 
z
" id="Cmr10-3d"/>
     </defs>
     <g style="fill:#262626;" transform="translate(513.7925 199.92275)scale(0.11 -0.11)">
      <use transform="translate(0.0 0.6875)" xlink:href="#Cmmi10-bf"/>
      <use transform="translate(61.259765625 0.6875)" xlink:href="#Cmr10-3d"/>
      <use transform="translate(156.50390625 0.6875)" xlink:href="#Cmmi10-59"/>
      <use transform="translate(214.51171875 -16.31875)scale(0.7)" xlink:href="#Cmmi10-74"/>
      <use transform="translate(263.706445313 0.6875)" xlink:href="#Cmsy10-a1"/>
      <use transform="translate(358.950585938 0.6875)" xlink:href="#Cmmi10-59"/>
      <use transform="translate(416.958398438 -16.31875)scale(0.7)" xlink:href="#Cmmi10-63"/>
     </g>
    </g>
   </g>
   <g id="line2d_67">
    <path clip-path="url(#pa581e831eb)" d="M 389.7625 170.629312 
L 537.121859 170.53741 
L 538.911649 170.308768 
L 540.104842 169.937885 
L 540.999737 169.43939 
L 541.894632 168.639748 
L 542.789527 167.397362 
L 543.386124 166.234169 
L 543.98272 164.728505 
L 544.877615 161.667931 
L 545.77251 157.40705 
L 546.667405 151.675182 
L 547.5623 144.231423 
L 548.457195 134.910105 
L 549.650388 119.518052 
L 551.141879 96.206988 
L 554.423161 42.34559 
L 555.318056 31.499606 
L 555.914652 26.099941 
L 556.511249 22.40404 
L 556.809547 21.241029 
L 557.107845 20.550877 
L 557.406144 20.340198 
L 557.704442 20.611016 
L 558.00274 21.360731 
L 558.599337 24.263656 
L 559.195933 28.939097 
L 560.090828 38.880434 
L 560.985723 51.608953 
L 562.775513 81.551053 
L 564.863601 115.727418 
L 566.056794 131.828003 
L 567.249987 144.578275 
L 568.144882 151.946705 
L 569.039777 157.612123 
L 569.934672 161.817521 
L 570.829567 164.833979 
L 571.724462 166.926259 
L 572.619357 168.330472 
L 573.514252 169.242797 
L 574.409147 169.816841 
L 575.60234 170.248401 
L 577.093831 170.491825 
L 579.480218 170.606522 
L 587.534272 170.629301 
L 687.7625 170.629312 
L 687.7625 170.629312 
" style="fill:none;stroke:#4c72b0;stroke-linecap:round;stroke-width:1.75;"/>
   </g>
   <g id="line2d_68">
    <path clip-path="url(#pa581e831eb)" d="M 389.7625 170.534183 
L 412.134872 170.293549 
L 427.348086 169.915241 
L 439.578316 169.396407 
L 450.317055 168.724326 
L 460.160898 167.892447 
L 469.706444 166.867785 
L 479.550288 165.584372 
L 490.289027 163.951367 
L 505.203941 161.427953 
L 521.908646 158.649887 
L 530.857595 157.390267 
L 538.315053 156.55371 
L 545.175913 155.998727 
L 551.738476 155.686469 
L 558.301039 155.602567 
L 564.863601 155.750892 
L 571.426164 156.124609 
L 578.287025 156.737708 
L 585.744482 157.627323 
L 594.395133 158.886695 
L 606.327065 160.867722 
L 628.997735 164.663442 
L 639.438176 166.161016 
L 649.28202 167.347156 
L 658.827565 168.275595 
L 668.969707 169.034536 
L 680.006744 169.628303 
L 687.7625 169.926397 
L 687.7625 169.926397 
" style="fill:none;stroke:#55a868;stroke-linecap:round;stroke-width:1.75;"/>
   </g>
   <g id="patch_8">
    <path d="M 371.1375 10.8 
L 706.3875 10.8 
" style="fill:none;"/>
   </g>
   <g id="patch_9">
    <path d="M 706.3875 170.629312 
L 706.3875 10.8 
" style="fill:none;"/>
   </g>
   <g id="patch_10">
    <path d="M 371.1375 170.629312 
L 706.3875 170.629312 
" style="fill:none;"/>
   </g>
   <g id="patch_11">
    <path d="M 371.1375 170.629312 
L 371.1375 10.8 
" style="fill:none;"/>
   </g>
   <g id="legend_2">
    <g id="line2d_69">
     <path d="M 618.5875 23.8 
L 638.5875 23.8 
" style="fill:none;stroke:#4c72b0;stroke-linecap:round;stroke-width:1.75;"/>
    </g>
    <g id="line2d_70"/>
    <g id="text_25">
     <!-- $f(\tau | \rho = .99)$ -->
     <defs>
      <path d="M 2.78125 -18.796875 
Q 2.78125 -18.21875 2.875 -18.015625 
L 12.796875 21.921875 
Q 14.203125 27.296875 17.640625 32.4375 
Q 21.09375 37.59375 25.96875 40.890625 
Q 30.859375 44.1875 36.28125 44.1875 
Q 40.625 44.1875 43.875 41.921875 
Q 47.125 39.65625 48.75 35.96875 
Q 50.390625 32.28125 50.390625 27.875 
Q 50.390625 23.046875 48.40625 17.875 
Q 46.4375 12.703125 42.9375 8.40625 
Q 39.453125 4.109375 34.90625 1.484375 
Q 30.375 -1.125 25.390625 -1.125 
Q 22.46875 -1.125 19.875 0.609375 
Q 17.28125 2.34375 15.828125 5.171875 
L 9.90625 -18.40625 
Q 9.625 -19.828125 8.453125 -20.703125 
Q 7.28125 -21.578125 5.8125 -21.578125 
Q 4.59375 -21.578125 3.6875 -20.8125 
Q 2.78125 -20.0625 2.78125 -18.796875 
M 25.59375 1.515625 
Q 30.90625 1.515625 34.828125 6.953125 
Q 38.765625 12.40625 40.84375 19.75 
Q 42.921875 27.09375 42.921875 32.171875 
Q 42.921875 35.984375 41.25 38.796875 
Q 39.59375 41.609375 36.078125 41.609375 
Q 31.734375 41.609375 28.40625 38.3125 
Q 25.09375 35.015625 23.09375 30.5625 
Q 21.09375 26.125 19.828125 21.296875 
L 17.09375 10.109375 
Q 17.71875 6.5 19.9375 4 
Q 22.171875 1.515625 25.59375 1.515625 
" id="Cmmi10-bd"/>
      <path d="M 11.921875 -23.1875 
L 11.921875 73.1875 
Q 11.921875 73.96875 12.5 74.484375 
Q 13.09375 75 13.921875 75 
Q 14.65625 75 15.28125 74.484375 
Q 15.921875 73.96875 15.921875 73.1875 
L 15.921875 -23.1875 
Q 15.921875 -23.96875 15.28125 -24.484375 
Q 14.65625 -25 13.921875 -25 
Q 13.09375 -25 12.5 -24.484375 
Q 11.921875 -23.96875 11.921875 -23.1875 
" id="Cmsy10-6a"/>
      <path d="M 11.28125 4.203125 
Q 14.015625 0.984375 20.796875 0.984375 
Q 24.609375 0.984375 27.90625 3.5625 
Q 31.203125 6.15625 33.015625 9.90625 
Q 35.109375 14.15625 35.6875 18.96875 
Q 36.28125 23.78125 36.28125 30.90625 
Q 34.578125 26.859375 31.375 24.265625 
Q 28.171875 21.6875 24.03125 21.6875 
Q 18.21875 21.6875 13.640625 24.828125 
Q 9.078125 27.984375 6.640625 33.125 
Q 4.203125 38.28125 4.203125 44.09375 
Q 4.203125 50.09375 6.9375 55.296875 
Q 9.671875 60.5 14.5 63.546875 
Q 19.34375 66.609375 25.484375 66.609375 
Q 31.546875 66.609375 35.625 63.3125 
Q 39.703125 60.015625 41.84375 54.8125 
Q 44 49.609375 44.84375 43.796875 
Q 45.703125 37.984375 45.703125 32.328125 
Q 45.703125 24.609375 42.875 16.578125 
Q 40.046875 8.546875 34.40625 3.171875 
Q 28.765625 -2.203125 20.796875 -2.203125 
Q 14.890625 -2.203125 10.78125 0.578125 
Q 6.6875 3.375 6.6875 8.984375 
Q 6.6875 11.03125 8.078125 12.421875 
Q 9.46875 13.8125 11.53125 13.8125 
Q 13.53125 13.8125 14.921875 12.421875 
Q 16.3125 11.03125 16.3125 8.984375 
Q 16.3125 7.03125 14.890625 5.609375 
Q 13.484375 4.203125 11.53125 4.203125 
z
M 24.421875 24.3125 
Q 28.515625 24.3125 31.125 27.0625 
Q 33.734375 29.828125 34.90625 33.921875 
Q 36.078125 38.03125 36.078125 42.09375 
L 36.078125 44 
L 36.078125 44.390625 
Q 36.078125 51.90625 33.875 57.8125 
Q 31.6875 63.71875 25.484375 63.71875 
Q 21.53125 63.71875 19.0625 61.984375 
Q 16.609375 60.25 15.4375 57.375 
Q 14.265625 54.5 13.9375 51.21875 
Q 13.625 47.953125 13.625 44.09375 
Q 13.625 38.421875 14.15625 34.421875 
Q 14.703125 30.421875 17.09375 27.359375 
Q 19.484375 24.3125 24.421875 24.3125 
" id="Cmr10-39"/>
      <path d="M 8.40625 5.515625 
Q 8.40625 7.765625 10.0625 9.375 
Q 11.71875 10.984375 13.921875 10.984375 
Q 15.28125 10.984375 16.59375 10.25 
Q 17.921875 9.515625 18.65625 8.203125 
Q 19.390625 6.890625 19.390625 5.515625 
Q 19.390625 3.328125 17.765625 1.65625 
Q 16.15625 0 13.921875 0 
Q 11.71875 0 10.0625 1.65625 
Q 8.40625 3.328125 8.40625 5.515625 
" id="Cmmi10-3a"/>
     </defs>
     <g style="fill:#262626;" transform="translate(646.5875 27.3)scale(0.1 -0.1)">
      <use xlink:href="#Cmmi10-66"/>
      <use transform="translate(48.876953125 0.0)" xlink:href="#Cmr10-28"/>
      <use transform="translate(87.6953125 0.0)" xlink:href="#Cmmi10-bf"/>
      <use transform="translate(131.396484375 0.0)" xlink:href="#Cmsy10-6a"/>
      <use transform="translate(159.08203125 0.0)" xlink:href="#Cmmi10-bd"/>
      <use transform="translate(228.349609375 0.0)" xlink:href="#Cmr10-3d"/>
      <use transform="translate(323.59375 0.0)" xlink:href="#Cmmi10-3a"/>
      <use transform="translate(368.837890625 0.0)" xlink:href="#Cmr10-39"/>
      <use transform="translate(418.837890625 0.0)" xlink:href="#Cmr10-39"/>
      <use transform="translate(468.837890625 0.0)" xlink:href="#Cmr10-29"/>
     </g>
    </g>
    <g id="line2d_71">
     <path d="M 618.5875 38.8 
L 638.5875 38.8 
" style="fill:none;stroke:#55a868;stroke-linecap:round;stroke-width:1.75;"/>
    </g>
    <g id="line2d_72"/>
    <g id="text_26">
     <!-- $f(\tau | \rho = 0)$ -->
     <defs>
      <path d="M 25 -2.203125 
Q 12.75 -2.203125 8.328125 7.875 
Q 3.90625 17.96875 3.90625 31.890625 
Q 3.90625 40.578125 5.484375 48.234375 
Q 7.078125 55.90625 11.78125 61.25 
Q 16.5 66.609375 25 66.609375 
Q 31.59375 66.609375 35.78125 63.375 
Q 39.984375 60.15625 42.1875 55.046875 
Q 44.390625 49.953125 45.1875 44.109375 
Q 46 38.28125 46 31.890625 
Q 46 23.296875 44.40625 15.796875 
Q 42.828125 8.296875 38.1875 3.046875 
Q 33.546875 -2.203125 25 -2.203125 
M 25 0.390625 
Q 30.5625 0.390625 33.296875 6.09375 
Q 36.03125 11.8125 36.671875 18.75 
Q 37.3125 25.6875 37.3125 33.5 
Q 37.3125 41.015625 36.671875 47.359375 
Q 36.03125 53.71875 33.3125 58.859375 
Q 30.609375 64.015625 25 64.015625 
Q 19.34375 64.015625 16.609375 58.828125 
Q 13.875 53.65625 13.234375 47.328125 
Q 12.59375 41.015625 12.59375 33.5 
Q 12.59375 27.9375 12.859375 23 
Q 13.140625 18.0625 14.3125 12.8125 
Q 15.484375 7.5625 18.09375 3.96875 
Q 20.703125 0.390625 25 0.390625 
" id="Cmr10-30"/>
     </defs>
     <g style="fill:#262626;" transform="translate(646.5875 42.3)scale(0.1 -0.1)">
      <use xlink:href="#Cmmi10-66"/>
      <use transform="translate(48.876953125 0.0)" xlink:href="#Cmr10-28"/>
      <use transform="translate(87.6953125 0.0)" xlink:href="#Cmmi10-bf"/>
      <use transform="translate(131.396484375 0.0)" xlink:href="#Cmsy10-6a"/>
      <use transform="translate(159.08203125 0.0)" xlink:href="#Cmmi10-bd"/>
      <use transform="translate(228.349609375 0.0)" xlink:href="#Cmr10-3d"/>
      <use transform="translate(323.59375 0.0)" xlink:href="#Cmr10-30"/>
      <use transform="translate(373.59375 0.0)" xlink:href="#Cmr10-29"/>
     </g>
    </g>
   </g>
  </g>
 </g>
 <defs>
  <clipPath id="pa581e831eb">
   <rect height="159.8293125" width="335.25" x="371.1375" y="10.8"/>
  </clipPath>
  <clipPath id="p494ef74388">
   <rect height="159.8293125" width="335.25" x="16.5375" y="10.8"/>
  </clipPath>
 </defs>
</svg>
